<svg id="Layer_1" data-name="Layer 1" xmlns="http://www.w3.org/2000/svg" width="116.29" height="50" viewBox="0 0 116.29 50"><defs><style>.cls-1{fill:#fff;}</style></defs><title>logo</title><path id="_Path_" data-name="&lt;Path&gt;" class="cls-1" d="M912.6,45.93V71a5.18,5.18,0,0,1-.71,2.33,5.63,5.63,0,0,1-2,2,5.26,5.26,0,0,1-2.78.76,5.2,5.2,0,0,1-2.74-.73,5.66,5.66,0,0,1-2-2,5.48,5.48,0,0,1-.74-2.36v-25a5.33,5.33,0,0,1,.71-2.32,5.92,5.92,0,0,1,2-2,5.17,5.17,0,0,1,2.27-.71h.9a5.46,5.46,0,0,1,2.35.71,5.64,5.64,0,0,1,2,2A5.33,5.33,0,0,1,912.6,45.93Z" transform="translate(-901.65 -26.03)"/><path id="_Compound_Path_" data-name="&lt;Compound Path&gt;" class="cls-1" d="M933,39.46h-.61q-15.17.75-15.17,15.74V70.4A5.71,5.71,0,0,0,920,75.23a5.49,5.49,0,0,0,5.52,0,5.63,5.63,0,0,0,2-2,5.33,5.33,0,0,0,.73-2.81V55.2q0-5.66,4.19-5.83H933q4.18.18,4.19,5.83V70.4a5.49,5.49,0,0,0,.76,2.81,5.56,5.56,0,0,0,2,2,5.5,5.5,0,0,0,5.53,0,5.8,5.8,0,0,0,2-2,5.42,5.42,0,0,0,.73-2.81V55.2Q948.16,40.22,933,39.46Z" transform="translate(-901.65 -26.03)"/><path id="_Path_2" data-name="&lt;Path&gt;" class="cls-1" d="M972.92,56.51h0a22,22,0,0,0-6.75-2.84,15.38,15.38,0,0,1-4-1.48c-.25-.19-.56-.56-.56-1.53a2.5,2.5,0,0,1,1-2,3.74,3.74,0,0,1,2.57-.93,3.91,3.91,0,0,1,2,.53,3,3,0,0,1,1.24,1.35v0a4.13,4.13,0,0,0,5.47,2,4.12,4.12,0,0,0,2-5.51,11.19,11.19,0,0,0-4.35-4.9,12.24,12.24,0,0,0-6.46-1.81,11.78,11.78,0,0,0-8.33,3.24,10.58,10.58,0,0,0-3.51,8,9.49,9.49,0,0,0,4,8.16A20.93,20.93,0,0,0,964,61.66a13,13,0,0,1,4,1.49h0a1.75,1.75,0,0,1,.63,1.59,2.5,2.5,0,0,1-1,2l0,0a3.68,3.68,0,0,1-2.53.92,4.61,4.61,0,0,1-2.63-.93l0,0a6.53,6.53,0,0,1-2-2,4.16,4.16,0,0,0-5.7-1.37l0,0a4.22,4.22,0,0,0-1.31,5.7,15.33,15.33,0,0,0,4.51,4.64A12.8,12.8,0,0,0,965.08,76a11.85,11.85,0,0,0,8.33-3.25,10.62,10.62,0,0,0,3.48-8A9.68,9.68,0,0,0,972.92,56.51Z" transform="translate(-901.65 -26.03)"/><path id="_Path_3" data-name="&lt;Path&gt;" class="cls-1" d="M911.91,34.36a5.74,5.74,0,0,1-2,2,5.49,5.49,0,0,1-5.52,0,5.63,5.63,0,0,1-2-7.61,5.8,5.8,0,0,1,2-2,5.24,5.24,0,0,1,2.75-.73,5.36,5.36,0,0,1,2.77.73,5.51,5.51,0,0,1,2.72,4.79A5.42,5.42,0,0,1,911.91,34.36Z" transform="translate(-901.65 -26.03)"/><path id="_Compound_Path_2" data-name="&lt;Compound Path&gt;" class="cls-1" d="M990.63,73.56A18,18,0,0,1,983.9,67a18.28,18.28,0,0,1,3-22.46,18.14,18.14,0,0,1,5.89-3.83,18.59,18.59,0,0,1,13.81,0,17.37,17.37,0,0,1,5.89,3.8,18.15,18.15,0,0,1,5.49,13.11,18.07,18.07,0,0,1-1.43,7.25,18.26,18.26,0,0,1-10,9.72A17.79,17.79,0,0,1,999.64,76,18,18,0,0,1,990.63,73.56Zm3.18-9.81a8,8,0,0,0,11.69,0,8.48,8.48,0,0,0,2.49-6.12,8.32,8.32,0,0,0-1.15-4.3,8.72,8.72,0,0,0-3.09-3.12A7.69,7.69,0,0,0,999.64,49a7.8,7.8,0,0,0-4.09,1.17,8.77,8.77,0,0,0-3.08,3.12,8.33,8.33,0,0,0-1.16,4.3A8.49,8.49,0,0,0,993.81,63.75Z" transform="translate(-901.65 -26.03)"/></svg>