<svg id="Layer_1" data-name="Layer 1" xmlns="http://www.w3.org/2000/svg" width="45.53" height="51.98" viewBox="0 0 45.53 51.98"><defs><style>.cls-1{fill:#fff;}</style></defs><title>play</title><path class="cls-1" d="M158,132.18a4.58,4.58,0,0,1,2.18,2.54,4.78,4.78,0,0,1,0,3.25,4.58,4.58,0,0,1-2.18,2.54l-35.75,21.12a4.54,4.54,0,0,1-3.25.61,4.87,4.87,0,0,1-2.89-1.62,4.59,4.59,0,0,1-1.17-3.15V115.22a4.52,4.52,0,0,1,1.22-3.3,5,5,0,0,1,2.94-1.53,4.55,4.55,0,0,1,3.15.66Z" transform="translate(-114.92 -110.34)"/></svg>